# xmcd CD database file
#
# Track frame offsets:
#	150
#	20653
#	37678
#	62026
#	76502
#	109001
#	142700
#	179339
#	226928
#	265283
#	308720
#
# Disc length: 4422 seconds
#
# Revision: 0
# Processed by: cddbd v1.5.2PL0 Copyright (c) Steve Scherf et al.
# Submitted via: CDex 1.51
#
DISCID=7b11440b
DTITLE=Columbus State University Wind Ensemble - Visions
DYEAR=2007
DGENRE=Wind Band
TTITLE0=Bert Appermont - Colors I. Yellow
TTITLE1=Bert Appermont - Colors II. Red
TTITLE2=Bert Appermont - Colors III. Blue
TTITLE3=Bert Appermont - Colors IV. Green
TTITLE4=Christopher Teofanidis - I wander the world in a dream of my own making
TTITLE5=J. M. David - Bright Window
TTITLE6=Robert Rumbelow - Refraction
TTITLE7=Michael Gandolfini - Vientos y Tangos
TTITLE8=Eric Ewazen - Visions of Light I. Monolith, The Face of Half Dome, Yosemite Nat. Park
TTITLE9=Eric Ewazen - Visions of Light II. Moonrise, Hernandez, New Mexiko
TTITLE10=Eric Ewazen - Visions of Light III. Thunderclouds, White Mountain Range, 1959
EXTD=YEAR: 2007
EXTT0=
EXTT1=
EXTT2=
EXTT3=
EXTT4=
EXTT5=
EXTT6=
EXTT7=
EXTT8=
EXTT9=
EXTT10=
PLAYORDER=
